<?xml version="1.0" encoding="UTF-8"?>
<svg class="bi bi-eye-slash" fill="currentColor" version="1.1" viewBox="0 0 16 16" xmlns="http://www.w3.org/2000/svg"><path d="m11.43 10.072c1.0886-0.97152 1.6902-2.0723 1.6902-2.0723s-1.92-3.52-5.12-3.52a4.48 4.48 0 0 0-1.7856 0.37632l0.4928 0.49344a3.84 3.84 0 0 1 1.2928-0.22976c1.3568 0 2.4826 0.74752 3.3075 1.5725a8.32 8.32 0 0 1 1.0624 1.3075q-0.05504 0.0832-0.1248 0.18432c-0.2144 0.3072-0.5312 0.7168-0.9376 1.1232q-0.15808 0.15872-0.33088 0.31104z" style="stroke-width:.64"/><path d="m10.11 8.7526a2.24 2.24 0 0 0-2.8634-2.8634l0.52672 0.52672a1.6 1.6 0 0 1 1.8106 1.8106zm-1.8835 0.83136 0.52608 0.52608a2.24 2.24 0 0 1-2.8634-2.8634l0.52672 0.52672a1.6 1.6 0 0 0 1.8106 1.8106" style="stroke-width:.64"/><path d="m5.024 6.3808q-0.1728 0.1536-0.33152 0.31168a8.32 8.32 0 0 0-1.0624 1.3075l0.1248 0.18432c0.2144 0.3072 0.5312 0.7168 0.9376 1.1232 0.82496 0.82496 1.9514 1.5725 3.3075 1.5725 0.45824 0 0.8896-0.08512 1.2928-0.2304l0.4928 0.49408a4.48 4.48 0 0 1-1.7856 0.37632c-3.2 0-5.12-3.52-5.12-3.52s0.60096-1.1014 1.6902-2.0723l0.45312 0.45376zm6.5894 5.6858-7.68-7.68 0.45312-0.45312 7.68 7.68z" style="stroke-width:.64"/></svg>
