<?xml version="1.0" encoding="UTF-8"?>
<svg class="bi bi-pencil" fill="#b48c08" version="1.1" viewBox="0 0 16 16" xmlns="http://www.w3.org/2000/svg"><path d="m10.57 2.505a0.34384 0.34384 0 0 1 0.48688 0l2.063 2.063a0.34384 0.34384 0 0 1 0 0.48687l-6.8768 6.8767a0.34384 0.34384 0 0 1-0.11553 0.07565l-3.4384 1.3753a0.34384 0.34384 0 0 1-0.44699-0.44699l1.3754-3.4384a0.34384 0.34384 0 0 1 0.075644-0.11553zm-0.64573 1.6188 1.5768 1.5768 0.88916-0.88916-1.5768-1.5768zm1.0907 2.063-1.5768-1.5768-4.4699 4.4699v0.20149h0.34384a0.34384 0.34384 0 0 1 0.34384 0.34384v0.34384h0.34384a0.34384 0.34384 0 0 1 0.34384 0.34384v0.34384h0.20149zm-6.7124 3.5587-0.072894 0.072894-1.0508 2.6276 2.6276-1.0508 0.072894-0.07289a0.34384 0.34384 0 0 1-0.22349-0.32184v-0.34384h-0.34384a0.34384 0.34384 0 0 1-0.34384-0.34384v-0.34384h-0.34384a0.34384 0.34384 0 0 1-0.32183-0.22349" style="stroke-width:.68768"/></svg>
