<?xml version="1.0" encoding="UTF-8"?>
<svg class="bi bi-eye" fill="currentColor" version="1.1" viewBox="0 0 16 16" xmlns="http://www.w3.org/2000/svg"><path d="m14.4 8s-2.4-4.4-6.4-4.4-6.4 4.4-6.4 4.4 2.4 4.4 6.4 4.4 6.4-4.4 6.4-4.4m-11.862 0a10.4 10.4 0 0 1 1.328-1.6344c1.0296-1.0312 2.4376-1.9656 4.1336-1.9656s3.1032 0.9344 4.1344 1.9656a10.4 10.4 0 0 1 1.328 1.6344q-0.0688 0.104-0.156 0.2304c-0.268 0.384-0.664 0.896-1.172 1.404-1.0312 1.0312-2.4392 1.9656-4.1344 1.9656s-3.1032-0.9344-4.1344-1.9656a10.4 10.4 0 0 1-1.328-1.6344z" style="stroke-width:.8"/><path d="m8 6a2 2 0 1 0 0 4 2 2 0 0 0 0-4m-2.8 2a2.8 2.8 0 1 1 5.6 0 2.8 2.8 0 0 1-5.6 0" style="stroke-width:.8"/></svg>
